<svg width="142" height="48" viewBox="0 0 142 48" fill="none" xmlns="http://www.w3.org/2000/svg">
<g filter="url(#filter0_d_1_723)">
<path d="M23.9999 40C35.0456 40 43.9999 31.0457 43.9999 20C43.9999 8.9543 35.0456 0 23.9999 0C12.9542 0 3.99994 8.9543 3.99994 20C3.99994 31.0457 12.9542 40 23.9999 40Z" fill="white" fill-opacity="0.1"/>
<path d="M22.8424 28.0463C18.9124 27.4707 15.8964 24.0828 15.8964 19.9891C15.8964 15.8954 18.9124 12.5075 22.8424 11.9322V7.69238C16.5855 8.29084 11.6923 13.5677 11.6923 19.9891C11.6923 26.4104 16.5855 31.687 22.8424 32.2858V28.0463Z" fill="white"/>
<path d="M30.9983 12L30.8892 12.3711V23.1393L30.9983 23.2483L35.9968 20.2937L30.9983 12Z" fill="white"/>
<path d="M30.9984 12L25.9999 20.2937L30.9984 23.2483V18.0217V12Z" fill="white"/>
<path d="M30.9986 24.8742L30.9371 24.9492V28.7851L30.9986 28.9648L36.0001 21.9211L30.9986 24.8742Z" fill="white"/>
<path d="M30.9984 28.9648V24.8742L25.9999 21.9211L30.9984 28.9648Z" fill="white"/>
<path d="M30.9984 23.2482L35.9968 20.2937L30.9984 18.0217V23.2482Z" fill="white"/>
<path d="M25.9999 20.2937L30.9983 23.2482V18.0217L25.9999 20.2937Z" fill="white"/>
<path d="M72.4964 18.326C72.0938 15.4176 69.8565 13.7301 66.9545 13.7301C63.5348 13.7301 60.9588 16.223 60.9588 20.4545C60.9588 24.6797 63.5028 27.179 66.9545 27.179C70.0675 27.179 72.1321 25.1655 72.4964 22.6662L70.1058 22.6534C69.8054 24.1875 68.5526 25.0504 66.9865 25.0504C64.8643 25.0504 63.343 23.4588 63.343 20.4545C63.343 17.5014 64.8516 15.8587 66.9929 15.8587C68.5845 15.8587 69.831 16.7599 70.1058 18.326H72.4964ZM75.3881 27H77.7596V22.206H80.1758L82.7454 27H85.3917L82.56 21.8097C84.1005 21.1896 84.9123 19.8729 84.9123 18.0959C84.9123 15.5966 83.3015 13.9091 80.2972 13.9091H75.3881V27ZM77.7596 20.2372V15.8906H79.9329C81.7035 15.8906 82.4961 16.7024 82.4961 18.0959C82.4961 19.4893 81.7035 20.2372 79.9457 20.2372H77.7596ZM89.4963 27L90.5765 23.772H95.4984L96.5851 27H99.1163L94.5013 13.9091H91.5737L86.965 27H89.4963ZM91.2157 21.8672L92.9863 16.5938H93.0886L94.8592 21.8672H91.2157ZM101.561 27H103.932V22.5767H106.438C109.461 22.5767 111.085 20.7614 111.085 18.2429C111.085 15.7436 109.48 13.9091 106.47 13.9091H101.561V27ZM103.932 20.6271V15.8906H106.105C107.882 15.8906 108.669 16.8494 108.669 18.2429C108.669 19.6364 107.882 20.6271 106.118 20.6271H103.932ZM113.865 27H116.236V22.5767H118.742C121.765 22.5767 123.389 20.7614 123.389 18.2429C123.389 15.7436 121.784 13.9091 118.774 13.9091H113.865V27ZM116.236 20.6271V15.8906H118.409C120.186 15.8906 120.973 16.8494 120.973 18.2429C120.973 19.6364 120.186 20.6271 118.422 20.6271H116.236ZM137.866 20.4545C137.866 16.223 135.284 13.7301 131.851 13.7301C128.412 13.7301 125.836 16.223 125.836 20.4545C125.836 24.6797 128.412 27.179 131.851 27.179C135.284 27.179 137.866 24.6861 137.866 20.4545ZM135.482 20.4545C135.482 23.4332 133.986 25.0504 131.851 25.0504C129.723 25.0504 128.22 23.4332 128.22 20.4545C128.22 17.4759 129.723 15.8587 131.851 15.8587C133.986 15.8587 135.482 17.4759 135.482 20.4545Z" fill="white"/>
</g>
<defs>
<filter id="filter0_d_1_723" x="-6.10352e-05" y="0" width="141.866" height="48" filterUnits="userSpaceOnUse" color-interpolation-filters="sRGB">
<feFlood flood-opacity="0" result="BackgroundImageFix"/>
<feColorMatrix in="SourceAlpha" type="matrix" values="0 0 0 0 0 0 0 0 0 0 0 0 0 0 0 0 0 0 127 0" result="hardAlpha"/>
<feOffset dy="4"/>
<feGaussianBlur stdDeviation="2"/>
<feComposite in2="hardAlpha" operator="out"/>
<feColorMatrix type="matrix" values="0 0 0 0 0 0 0 0 0 0 0 0 0 0 0 0 0 0 0.25 0"/>
<feBlend mode="normal" in2="BackgroundImageFix" result="effect1_dropShadow_1_723"/>
<feBlend mode="normal" in="SourceGraphic" in2="effect1_dropShadow_1_723" result="shape"/>
</filter>
</defs>
</svg>
